<mxfile host="Electron" modified="2023-11-10T11:41:43.645Z" agent="Mozilla/5.0 (Windows NT 10.0; Win64; x64) AppleWebKit/537.36 (KHTML, like Gecko) draw.io/22.0.0 Chrome/114.0.5735.289 Electron/25.8.3 Safari/537.36" etag="4AVBtY0v6Yh-iMoxdahu" version="22.0.0" type="device">
  <diagram name="Страница — 1" id="OFkjJMPrs0O_vb34kiXz">
    <mxGraphModel dx="-929" dy="678" grid="0" gridSize="10" guides="1" tooltips="1" connect="1" arrows="1" fold="1" page="0" pageScale="1" pageWidth="827" pageHeight="1169" math="0" shadow="0">
      <root>
        <mxCell id="0" />
        <mxCell id="1" parent="0" />
        <mxCell id="-kXGByxsiksS6LNviKvb-1" value="1" style="ellipse;whiteSpace=wrap;html=1;fontColor=#990099;strokeColor=#990099;strokeWidth=1;perimeterSpacing=0;" vertex="1" parent="1">
          <mxGeometry x="1634" y="333.9999999999996" width="30" height="30" as="geometry" />
        </mxCell>
        <mxCell id="-kXGByxsiksS6LNviKvb-2" value="2" style="ellipse;whiteSpace=wrap;html=1;fontColor=#990099;strokeColor=#990099;strokeWidth=1;perimeterSpacing=0;" vertex="1" parent="1">
          <mxGeometry x="1700" y="284.9999999999996" width="30" height="30" as="geometry" />
        </mxCell>
        <mxCell id="-kXGByxsiksS6LNviKvb-3" value="3" style="ellipse;whiteSpace=wrap;html=1;fontColor=#990099;strokeColor=#990099;strokeWidth=1;perimeterSpacing=0;" vertex="1" parent="1">
          <mxGeometry x="1676" y="385.9999999999996" width="30" height="30" as="geometry" />
        </mxCell>
        <mxCell id="-kXGByxsiksS6LNviKvb-4" value="4" style="ellipse;whiteSpace=wrap;html=1;fontColor=#990099;strokeColor=#990099;strokeWidth=1;perimeterSpacing=0;" vertex="1" parent="1">
          <mxGeometry x="1747" y="326.9999999999996" width="30" height="30" as="geometry" />
        </mxCell>
        <mxCell id="-kXGByxsiksS6LNviKvb-5" value="5" style="ellipse;whiteSpace=wrap;html=1;fontColor=#990099;strokeColor=#990099;strokeWidth=1;perimeterSpacing=0;" vertex="1" parent="1">
          <mxGeometry x="1796" y="298.9999999999996" width="30" height="30" as="geometry" />
        </mxCell>
        <mxCell id="-kXGByxsiksS6LNviKvb-6" value="6" style="ellipse;whiteSpace=wrap;html=1;fontColor=#990099;strokeColor=#990099;strokeWidth=1;perimeterSpacing=0;" vertex="1" parent="1">
          <mxGeometry x="1779.5" y="457.9999999999996" width="30" height="30" as="geometry" />
        </mxCell>
        <mxCell id="-kXGByxsiksS6LNviKvb-8" value="7" style="ellipse;whiteSpace=wrap;html=1;fontColor=#990099;strokeColor=#990099;strokeWidth=1;perimeterSpacing=0;" vertex="1" parent="1">
          <mxGeometry x="1760" y="385.9999999999996" width="30" height="30" as="geometry" />
        </mxCell>
        <mxCell id="-kXGByxsiksS6LNviKvb-9" value="8" style="ellipse;whiteSpace=wrap;html=1;fontColor=#990099;strokeColor=#990099;strokeWidth=1;perimeterSpacing=0;" vertex="1" parent="1">
          <mxGeometry x="1841" y="385.9999999999996" width="30" height="30" as="geometry" />
        </mxCell>
        <mxCell id="-kXGByxsiksS6LNviKvb-10" value="11" style="ellipse;whiteSpace=wrap;html=1;fontColor=#990099;strokeColor=#990099;strokeWidth=4;perimeterSpacing=2;" vertex="1" parent="1">
          <mxGeometry x="1891" y="298.9999999999996" width="30" height="30" as="geometry" />
        </mxCell>
        <mxCell id="-kXGByxsiksS6LNviKvb-15" style="edgeStyle=none;shape=connector;rounded=0;orthogonalLoop=1;jettySize=auto;html=1;labelBackgroundColor=none;strokeColor=#990099;align=center;verticalAlign=middle;fontFamily=Helvetica;fontSize=11;fontColor=#990099;endArrow=blockThin;endFill=1;" edge="1" parent="1" target="-kXGByxsiksS6LNviKvb-1">
          <mxGeometry relative="1" as="geometry">
            <mxPoint x="1608" y="349" as="sourcePoint" />
            <mxPoint x="1613" y="354.39" as="targetPoint" />
          </mxGeometry>
        </mxCell>
        <mxCell id="-kXGByxsiksS6LNviKvb-16" style="edgeStyle=none;shape=connector;rounded=0;orthogonalLoop=1;jettySize=auto;html=1;labelBackgroundColor=none;strokeColor=#990099;align=center;verticalAlign=middle;fontFamily=Helvetica;fontSize=11;fontColor=#990099;endArrow=blockThin;endFill=1;" edge="1" parent="1" source="-kXGByxsiksS6LNviKvb-1" target="-kXGByxsiksS6LNviKvb-2">
          <mxGeometry relative="1" as="geometry">
            <mxPoint x="1677" y="315" as="sourcePoint" />
            <mxPoint x="1657" y="293" as="targetPoint" />
          </mxGeometry>
        </mxCell>
        <mxCell id="-kXGByxsiksS6LNviKvb-17" value="a" style="edgeLabel;html=1;align=center;verticalAlign=middle;resizable=0;points=[];fontSize=11;fontFamily=Helvetica;fontColor=#990099;labelBackgroundColor=default;" vertex="1" connectable="0" parent="-kXGByxsiksS6LNviKvb-16">
          <mxGeometry x="0.0634" y="-1" relative="1" as="geometry">
            <mxPoint x="-8" y="-6" as="offset" />
          </mxGeometry>
        </mxCell>
        <mxCell id="-kXGByxsiksS6LNviKvb-18" style="edgeStyle=none;shape=connector;rounded=0;orthogonalLoop=1;jettySize=auto;html=1;labelBackgroundColor=none;strokeColor=#990099;align=center;verticalAlign=middle;fontFamily=Helvetica;fontSize=11;fontColor=#990099;endArrow=blockThin;endFill=1;" edge="1" parent="1" source="-kXGByxsiksS6LNviKvb-1" target="-kXGByxsiksS6LNviKvb-3">
          <mxGeometry relative="1" as="geometry">
            <mxPoint x="1700" y="416" as="sourcePoint" />
            <mxPoint x="1681" y="394" as="targetPoint" />
          </mxGeometry>
        </mxCell>
        <mxCell id="-kXGByxsiksS6LNviKvb-19" value="b" style="edgeLabel;html=1;align=center;verticalAlign=middle;resizable=0;points=[];fontSize=11;fontFamily=Helvetica;fontColor=#990099;labelBackgroundColor=default;" vertex="1" connectable="0" parent="-kXGByxsiksS6LNviKvb-18">
          <mxGeometry x="0.0634" y="-1" relative="1" as="geometry">
            <mxPoint x="2" y="-11" as="offset" />
          </mxGeometry>
        </mxCell>
        <mxCell id="-kXGByxsiksS6LNviKvb-21" style="edgeStyle=none;shape=connector;rounded=0;orthogonalLoop=1;jettySize=auto;html=1;labelBackgroundColor=none;strokeColor=#990099;align=center;verticalAlign=middle;fontFamily=Helvetica;fontSize=11;fontColor=#990099;endArrow=blockThin;endFill=1;" edge="1" parent="1" source="-kXGByxsiksS6LNviKvb-2" target="-kXGByxsiksS6LNviKvb-4">
          <mxGeometry relative="1" as="geometry">
            <mxPoint x="1662" y="268" as="sourcePoint" />
            <mxPoint x="1642" y="245.99999999999997" as="targetPoint" />
          </mxGeometry>
        </mxCell>
        <mxCell id="-kXGByxsiksS6LNviKvb-22" value="a" style="edgeLabel;html=1;align=center;verticalAlign=middle;resizable=0;points=[];fontSize=11;fontFamily=Helvetica;fontColor=#990099;labelBackgroundColor=default;" vertex="1" connectable="0" parent="-kXGByxsiksS6LNviKvb-21">
          <mxGeometry x="0.0634" y="-1" relative="1" as="geometry">
            <mxPoint x="-9" y="4" as="offset" />
          </mxGeometry>
        </mxCell>
        <mxCell id="-kXGByxsiksS6LNviKvb-23" style="edgeStyle=none;shape=connector;rounded=0;orthogonalLoop=1;jettySize=auto;html=1;labelBackgroundColor=none;strokeColor=#990099;align=center;verticalAlign=middle;fontFamily=Helvetica;fontSize=11;fontColor=#990099;endArrow=blockThin;endFill=1;" edge="1" parent="1" source="-kXGByxsiksS6LNviKvb-2" target="-kXGByxsiksS6LNviKvb-5">
          <mxGeometry relative="1" as="geometry">
            <mxPoint x="1667" y="289" as="sourcePoint" />
            <mxPoint x="1648" y="267" as="targetPoint" />
          </mxGeometry>
        </mxCell>
        <mxCell id="-kXGByxsiksS6LNviKvb-24" value="b" style="edgeLabel;html=1;align=center;verticalAlign=middle;resizable=0;points=[];fontSize=11;fontFamily=Helvetica;fontColor=#990099;labelBackgroundColor=default;" vertex="1" connectable="0" parent="-kXGByxsiksS6LNviKvb-23">
          <mxGeometry x="0.0634" y="-1" relative="1" as="geometry">
            <mxPoint x="-3" y="-11" as="offset" />
          </mxGeometry>
        </mxCell>
        <mxCell id="-kXGByxsiksS6LNviKvb-25" style="edgeStyle=none;shape=connector;rounded=0;orthogonalLoop=1;jettySize=auto;html=1;labelBackgroundColor=none;strokeColor=#990099;align=center;verticalAlign=middle;fontFamily=Helvetica;fontSize=11;fontColor=#990099;endArrow=blockThin;endFill=1;" edge="1" parent="1" source="-kXGByxsiksS6LNviKvb-3" target="-kXGByxsiksS6LNviKvb-6">
          <mxGeometry relative="1" as="geometry">
            <mxPoint x="1816" y="423" as="sourcePoint" />
            <mxPoint x="1796" y="401" as="targetPoint" />
          </mxGeometry>
        </mxCell>
        <mxCell id="-kXGByxsiksS6LNviKvb-26" value="a" style="edgeLabel;html=1;align=center;verticalAlign=middle;resizable=0;points=[];fontSize=11;fontFamily=Helvetica;fontColor=#990099;labelBackgroundColor=default;" vertex="1" connectable="0" parent="-kXGByxsiksS6LNviKvb-25">
          <mxGeometry x="0.0634" y="-1" relative="1" as="geometry">
            <mxPoint x="-13" y="-4" as="offset" />
          </mxGeometry>
        </mxCell>
        <mxCell id="-kXGByxsiksS6LNviKvb-30" style="edgeStyle=none;shape=connector;rounded=0;orthogonalLoop=1;jettySize=auto;html=1;labelBackgroundColor=none;strokeColor=#990099;align=center;verticalAlign=middle;fontFamily=Helvetica;fontSize=11;fontColor=#990099;endArrow=blockThin;endFill=1;" edge="1" parent="1" source="-kXGByxsiksS6LNviKvb-4" target="-kXGByxsiksS6LNviKvb-8">
          <mxGeometry relative="1" as="geometry">
            <mxPoint x="1675" y="261.52" as="sourcePoint" />
            <mxPoint x="1655" y="239.51999999999998" as="targetPoint" />
          </mxGeometry>
        </mxCell>
        <mxCell id="-kXGByxsiksS6LNviKvb-31" value="a" style="edgeLabel;html=1;align=center;verticalAlign=middle;resizable=0;points=[];fontSize=11;fontFamily=Helvetica;fontColor=#990099;labelBackgroundColor=default;" vertex="1" connectable="0" parent="-kXGByxsiksS6LNviKvb-30">
          <mxGeometry x="0.0634" y="-1" relative="1" as="geometry">
            <mxPoint x="7" y="-3" as="offset" />
          </mxGeometry>
        </mxCell>
        <mxCell id="-kXGByxsiksS6LNviKvb-33" style="edgeStyle=none;shape=connector;rounded=0;orthogonalLoop=1;jettySize=auto;html=1;labelBackgroundColor=none;strokeColor=#990099;align=center;verticalAlign=middle;fontFamily=Helvetica;fontSize=11;fontColor=#990099;endArrow=blockThin;endFill=1;" edge="1" parent="1" source="-kXGByxsiksS6LNviKvb-4" target="-kXGByxsiksS6LNviKvb-9">
          <mxGeometry relative="1" as="geometry">
            <mxPoint x="1897" y="368.24" as="sourcePoint" />
            <mxPoint x="1878" y="346.24" as="targetPoint" />
          </mxGeometry>
        </mxCell>
        <mxCell id="-kXGByxsiksS6LNviKvb-34" value="b" style="edgeLabel;html=1;align=center;verticalAlign=middle;resizable=0;points=[];fontSize=11;fontFamily=Helvetica;fontColor=#990099;labelBackgroundColor=default;" vertex="1" connectable="0" parent="-kXGByxsiksS6LNviKvb-33">
          <mxGeometry x="0.0634" y="-1" relative="1" as="geometry">
            <mxPoint x="-10" y="5" as="offset" />
          </mxGeometry>
        </mxCell>
        <mxCell id="-kXGByxsiksS6LNviKvb-36" style="edgeStyle=none;shape=connector;rounded=0;orthogonalLoop=1;jettySize=auto;html=1;labelBackgroundColor=none;strokeColor=#990099;align=center;verticalAlign=middle;fontFamily=Helvetica;fontSize=11;fontColor=#990099;endArrow=blockThin;endFill=1;" edge="1" parent="1" source="-kXGByxsiksS6LNviKvb-5" target="-kXGByxsiksS6LNviKvb-10">
          <mxGeometry relative="1" as="geometry">
            <mxPoint x="1857" y="412" as="sourcePoint" />
            <mxPoint x="1837" y="390" as="targetPoint" />
          </mxGeometry>
        </mxCell>
        <mxCell id="-kXGByxsiksS6LNviKvb-37" value="a" style="edgeLabel;html=1;align=center;verticalAlign=middle;resizable=0;points=[];fontSize=11;fontFamily=Helvetica;fontColor=#990099;labelBackgroundColor=default;" vertex="1" connectable="0" parent="-kXGByxsiksS6LNviKvb-36">
          <mxGeometry x="0.0634" y="-1" relative="1" as="geometry">
            <mxPoint x="-4" y="6" as="offset" />
          </mxGeometry>
        </mxCell>
        <mxCell id="-kXGByxsiksS6LNviKvb-41" style="edgeStyle=none;shape=connector;rounded=0;orthogonalLoop=1;jettySize=auto;html=1;labelBackgroundColor=none;strokeColor=#990099;align=center;verticalAlign=middle;fontFamily=Helvetica;fontSize=11;fontColor=#990099;endArrow=blockThin;endFill=1;" edge="1" parent="1" source="-kXGByxsiksS6LNviKvb-6" target="-kXGByxsiksS6LNviKvb-6">
          <mxGeometry relative="1" as="geometry">
            <mxPoint x="1732.49" y="491" as="sourcePoint" />
            <mxPoint x="1746.49" y="491" as="targetPoint" />
            <Array as="points">
              <mxPoint x="1768.5" y="507" />
              <mxPoint x="1752.5" y="479" />
            </Array>
          </mxGeometry>
        </mxCell>
        <mxCell id="-kXGByxsiksS6LNviKvb-42" value="a" style="edgeLabel;html=1;align=center;verticalAlign=middle;resizable=0;points=[];fontSize=11;fontFamily=Helvetica;fontColor=#990099;" vertex="1" connectable="0" parent="-kXGByxsiksS6LNviKvb-41">
          <mxGeometry x="-0.107" y="2" relative="1" as="geometry">
            <mxPoint x="7" y="-10" as="offset" />
          </mxGeometry>
        </mxCell>
        <mxCell id="-kXGByxsiksS6LNviKvb-43" style="edgeStyle=none;shape=connector;rounded=0;orthogonalLoop=1;jettySize=auto;html=1;labelBackgroundColor=none;strokeColor=#990099;align=center;verticalAlign=middle;fontFamily=Helvetica;fontSize=11;fontColor=#990099;endArrow=blockThin;endFill=1;" edge="1" parent="1" source="-kXGByxsiksS6LNviKvb-6" target="-kXGByxsiksS6LNviKvb-9">
          <mxGeometry relative="1" as="geometry">
            <mxPoint x="1833.43" y="478.9" as="sourcePoint" />
            <mxPoint x="1886.43" y="493.9" as="targetPoint" />
          </mxGeometry>
        </mxCell>
        <mxCell id="-kXGByxsiksS6LNviKvb-44" value="b" style="edgeLabel;html=1;align=center;verticalAlign=middle;resizable=0;points=[];fontSize=11;fontFamily=Helvetica;fontColor=#990099;labelBackgroundColor=default;" vertex="1" connectable="0" parent="-kXGByxsiksS6LNviKvb-43">
          <mxGeometry x="0.0634" y="-1" relative="1" as="geometry">
            <mxPoint x="2" y="8" as="offset" />
          </mxGeometry>
        </mxCell>
        <mxCell id="-kXGByxsiksS6LNviKvb-45" style="edgeStyle=none;shape=connector;rounded=0;orthogonalLoop=1;jettySize=auto;html=1;labelBackgroundColor=none;strokeColor=#990099;align=center;verticalAlign=middle;fontFamily=Helvetica;fontSize=11;fontColor=#990099;endArrow=blockThin;endFill=1;" edge="1" parent="1" source="-kXGByxsiksS6LNviKvb-8" target="-kXGByxsiksS6LNviKvb-6">
          <mxGeometry relative="1" as="geometry">
            <mxPoint x="1772" y="392" as="sourcePoint" />
            <mxPoint x="1752" y="370" as="targetPoint" />
          </mxGeometry>
        </mxCell>
        <mxCell id="-kXGByxsiksS6LNviKvb-46" value="a" style="edgeLabel;html=1;align=center;verticalAlign=middle;resizable=0;points=[];fontSize=11;fontFamily=Helvetica;fontColor=#990099;labelBackgroundColor=default;" vertex="1" connectable="0" parent="-kXGByxsiksS6LNviKvb-45">
          <mxGeometry x="0.0634" y="-1" relative="1" as="geometry">
            <mxPoint x="6" y="-8" as="offset" />
          </mxGeometry>
        </mxCell>
        <mxCell id="-kXGByxsiksS6LNviKvb-47" style="edgeStyle=none;shape=connector;rounded=0;orthogonalLoop=1;jettySize=auto;html=1;labelBackgroundColor=none;strokeColor=#990099;align=center;verticalAlign=middle;fontFamily=Helvetica;fontSize=11;fontColor=#990099;endArrow=blockThin;endFill=1;" edge="1" parent="1" source="-kXGByxsiksS6LNviKvb-8" target="-kXGByxsiksS6LNviKvb-9">
          <mxGeometry relative="1" as="geometry">
            <mxPoint x="1933" y="438" as="sourcePoint" />
            <mxPoint x="1914" y="416" as="targetPoint" />
          </mxGeometry>
        </mxCell>
        <mxCell id="-kXGByxsiksS6LNviKvb-48" value="b" style="edgeLabel;html=1;align=center;verticalAlign=middle;resizable=0;points=[];fontSize=11;fontFamily=Helvetica;fontColor=#990099;labelBackgroundColor=default;" vertex="1" connectable="0" parent="-kXGByxsiksS6LNviKvb-47">
          <mxGeometry x="0.0634" y="-1" relative="1" as="geometry">
            <mxPoint x="-6" y="6" as="offset" />
          </mxGeometry>
        </mxCell>
        <mxCell id="-kXGByxsiksS6LNviKvb-50" style="edgeStyle=none;shape=connector;rounded=0;orthogonalLoop=1;jettySize=auto;html=1;labelBackgroundColor=none;strokeColor=#990099;align=center;verticalAlign=middle;fontFamily=Helvetica;fontSize=11;fontColor=#990099;endArrow=blockThin;endFill=1;exitX=0.5;exitY=0;exitDx=0;exitDy=0;entryX=1;entryY=1;entryDx=0;entryDy=0;" edge="1" parent="1" source="-kXGByxsiksS6LNviKvb-9" target="-kXGByxsiksS6LNviKvb-5">
          <mxGeometry relative="1" as="geometry">
            <mxPoint x="1907" y="372" as="sourcePoint" />
            <mxPoint x="1888" y="350" as="targetPoint" />
          </mxGeometry>
        </mxCell>
        <mxCell id="-kXGByxsiksS6LNviKvb-51" value="b" style="edgeLabel;html=1;align=center;verticalAlign=middle;resizable=0;points=[];fontSize=11;fontFamily=Helvetica;fontColor=#990099;labelBackgroundColor=default;" vertex="1" connectable="0" parent="-kXGByxsiksS6LNviKvb-50">
          <mxGeometry x="0.0634" y="-1" relative="1" as="geometry">
            <mxPoint x="6" y="1" as="offset" />
          </mxGeometry>
        </mxCell>
        <mxCell id="-kXGByxsiksS6LNviKvb-54" style="edgeStyle=none;shape=connector;rounded=0;orthogonalLoop=1;jettySize=auto;html=1;labelBackgroundColor=none;strokeColor=#990099;align=center;verticalAlign=middle;fontFamily=Helvetica;fontSize=11;fontColor=#990099;endArrow=blockThin;endFill=1;exitX=0;exitY=0;exitDx=0;exitDy=0;entryX=0.5;entryY=1;entryDx=0;entryDy=0;" edge="1" parent="1" source="-kXGByxsiksS6LNviKvb-9" target="-kXGByxsiksS6LNviKvb-5">
          <mxGeometry relative="1" as="geometry">
            <mxPoint x="1871" y="377.52" as="sourcePoint" />
            <mxPoint x="1851" y="355.52" as="targetPoint" />
          </mxGeometry>
        </mxCell>
        <mxCell id="-kXGByxsiksS6LNviKvb-55" value="a" style="edgeLabel;html=1;align=center;verticalAlign=middle;resizable=0;points=[];fontSize=11;fontFamily=Helvetica;fontColor=#990099;labelBackgroundColor=default;" vertex="1" connectable="0" parent="-kXGByxsiksS6LNviKvb-54">
          <mxGeometry x="0.0634" y="-1" relative="1" as="geometry">
            <mxPoint x="-5" y="6" as="offset" />
          </mxGeometry>
        </mxCell>
        <mxCell id="-kXGByxsiksS6LNviKvb-56" value="9" style="ellipse;whiteSpace=wrap;html=1;fontColor=#990099;strokeColor=#990099;strokeWidth=1;perimeterSpacing=0;" vertex="1" parent="1">
          <mxGeometry x="1846" y="238.9999999999996" width="30" height="30" as="geometry" />
        </mxCell>
        <mxCell id="-kXGByxsiksS6LNviKvb-57" value="10" style="ellipse;whiteSpace=wrap;html=1;fontColor=#990099;strokeColor=#990099;strokeWidth=1;perimeterSpacing=0;" vertex="1" parent="1">
          <mxGeometry x="1916" y="225.9999999999996" width="30" height="30" as="geometry" />
        </mxCell>
        <mxCell id="-kXGByxsiksS6LNviKvb-60" style="edgeStyle=none;shape=connector;rounded=0;orthogonalLoop=1;jettySize=auto;html=1;labelBackgroundColor=none;strokeColor=#990099;align=center;verticalAlign=middle;fontFamily=Helvetica;fontSize=11;fontColor=#990099;endArrow=blockThin;endFill=1;" edge="1" parent="1" source="-kXGByxsiksS6LNviKvb-3" target="-kXGByxsiksS6LNviKvb-8">
          <mxGeometry relative="1" as="geometry">
            <mxPoint x="1658" y="361" as="sourcePoint" />
            <mxPoint x="1647" y="438" as="targetPoint" />
          </mxGeometry>
        </mxCell>
        <mxCell id="-kXGByxsiksS6LNviKvb-61" value="b" style="edgeLabel;html=1;align=center;verticalAlign=middle;resizable=0;points=[];fontSize=11;fontFamily=Helvetica;fontColor=#990099;labelBackgroundColor=default;" vertex="1" connectable="0" parent="-kXGByxsiksS6LNviKvb-60">
          <mxGeometry x="0.0634" y="-1" relative="1" as="geometry">
            <mxPoint x="2" y="-11" as="offset" />
          </mxGeometry>
        </mxCell>
      </root>
    </mxGraphModel>
  </diagram>
</mxfile>
